<svg width="218" height="278" viewBox="0 0 218 278" fill="none" xmlns="http://www.w3.org/2000/svg">
	<path
		d="M180.849 200.089C180.585 199.883 180.529 199.498 180.725 199.229C192.635 183.623 198.971 163.918 198.751 144.299C198.749 143.965 199.019 143.691 199.354 143.683C199.689 143.676 199.962 143.945 199.965 144.285C200.187 164.176 193.772 184.134 181.69 199.968C181.49 200.242 181.114 200.296 180.849 200.089Z"
		fill="#3B7172" />
	<path
		d="M197.751 128.268C202.239 130.823 205.017 135.395 205.188 140.167C205.38 142.541 204.792 144.945 203.829 147.123C202.722 149.298 201.184 151.253 199.03 152.769C191.83 145.23 191.31 136.537 197.751 128.268Z"
		fill="#4D878B" />
	<path
		d="M199.24 149.513C199.407 149.521 199.55 149.392 199.559 149.223C199.815 143.642 199.561 138.034 198.774 132.496C198.746 132.33 198.589 132.215 198.422 132.24C198.257 132.265 198.145 132.419 198.173 132.584C198.956 138.082 199.207 143.651 198.953 149.195C198.943 149.362 199.073 149.504 199.24 149.513Z"
		fill="#3B7172" />
	<path
		d="M180.043 148.821C185.194 148.36 189.918 149.568 193.088 152.533C194.632 153.998 195.937 155.898 196.541 158.072C196.859 159.159 197.092 160.327 197.138 161.536C197.158 162.74 197.048 163.997 196.8 165.277C191.604 164.983 187.303 162.594 184.433 159.607C183.014 158.102 181.797 156.399 181.117 154.603C180.738 153.7 180.426 152.765 180.264 151.803C180.121 150.841 180.025 149.849 180.043 148.821Z"
		fill="#4D878B" />
	<path
		d="M194.766 162.742C194.897 162.641 194.917 162.455 194.813 162.327C191.313 158.114 187.442 154.346 183.447 151.084C183.327 150.985 183.135 150.985 183.017 151.083C182.898 151.18 182.9 151.337 183.019 151.436C187.013 154.703 190.867 158.48 194.34 162.693C194.445 162.82 194.637 162.843 194.766 162.742Z"
		fill="#3B7172" />
	<path
		d="M176.996 166.185C182.142 167.008 186.326 169.311 188.75 172.988C189.905 174.792 190.61 176.915 190.748 179.203C190.816 181.458 190.401 183.915 189.207 186.236C184.222 184.659 180.691 181.309 178.625 177.714C176.495 174.037 175.913 170.15 176.996 166.185Z"
		fill="#4D878B" />
	<path
		d="M187.884 183.294C188.037 183.229 188.104 183.055 188.034 182.907C186.811 180.417 185.523 178.037 184.158 175.764C182.714 173.458 181.315 171.304 179.726 169.215C179.63 169.089 179.445 169.043 179.311 169.109C179.178 169.176 179.148 169.331 179.243 169.457C180.783 171.532 182.226 173.707 183.645 176.007C184.966 178.264 186.31 180.673 187.48 183.141C187.551 183.29 187.732 183.359 187.884 183.294Z"
		fill="#3B7172" />
	<path
		d="M217.757 159.023C212.773 157.32 207.932 158.375 204.074 160.795C200.233 163.263 197.247 167.063 195.659 172.043C197.984 173.23 200.357 173.885 202.692 173.949C203.86 173.981 205.017 173.866 206.15 173.603C207.258 173.332 208.337 172.912 209.371 172.344C211.446 171.21 213.352 169.485 214.779 167.212C216.292 164.961 217.253 162.155 217.757 159.023Z"
		fill="#4D878B" />
	<path
		d="M198.673 170.724C198.603 170.565 198.67 170.381 198.824 170.308C201.337 169.103 203.958 167.795 206.409 166.317C207.655 165.583 208.906 164.818 210.161 164.022C211.412 163.225 212.596 162.383 213.82 161.517C213.967 161.412 214.153 161.462 214.235 161.63C214.318 161.797 214.267 162.016 214.119 162.121C209.26 165.585 204.163 168.494 199.074 170.88C198.921 170.952 198.743 170.881 198.673 170.724Z"
		fill="#3B7172" />
	<path
		d="M211.049 185.299C208.843 183.855 206.494 183.109 204.177 182.889C201.874 182.68 199.563 182.98 197.368 183.681C195.197 184.394 193.187 185.524 191.315 186.983C189.524 188.487 187.803 190.274 186.463 192.529C188.411 194.252 190.557 195.487 192.799 196.126C195.026 196.758 197.348 196.793 199.657 196.205C204.269 195.065 208.65 191.207 211.049 185.299Z"
		fill="#4D878B" />
	<path
		d="M189.678 191.98C189.652 191.81 189.765 191.648 189.932 191.617C191.31 191.35 192.734 191.07 194.118 190.733C195.491 190.39 196.877 190.018 198.278 189.616C201.118 188.83 203.833 187.848 206.651 186.772C206.821 186.707 206.989 186.799 207.026 186.982C207.064 187.164 206.956 187.363 206.787 187.428C203.988 188.509 201.226 189.466 198.391 190.251C196.988 190.649 195.61 191.025 194.225 191.359C192.809 191.679 191.409 191.969 190.024 192.231C189.86 192.263 189.704 192.149 189.678 191.98Z"
		fill="#3B7172" />
	<path
		d="M198.212 108.955L197.274 108.613C196.859 109.879 196.393 111.143 195.934 112.381C193.842 107.75 191.454 103.256 188.797 98.9251C188.397 98.2474 188.119 97.4937 188.036 96.7049L188.03 96.655L187.06 96.816C187.154 97.7507 187.488 98.6406 187.96 99.4418C189.01 101.162 190.028 102.9 190.988 104.672C188.714 104.011 186.432 103.432 184.159 102.93L183.905 103.851C186.477 104.43 189.056 105.109 191.648 105.884C194.294 110.865 196.592 116.029 198.527 121.327L199.45 120.99C198.533 118.519 197.57 116.064 196.504 113.653C197.104 112.11 197.662 110.549 198.212 108.955Z"
		fill="#3B7172" />
	<path
		d="M182.298 77.7328C180.237 81.4843 179.905 85.4018 180.864 88.85C181.847 92.2995 184.168 95.2897 187.839 97.3876C190.497 94.0891 191.267 90.098 190.245 86.4077C189.235 82.7298 186.405 79.4189 182.298 77.7328Z"
		fill="#4D878B" />
	<path
		d="M187.314 94.7892C187.181 94.8167 187.05 94.7318 187.02 94.5983C186.058 90.1654 184.824 85.7113 183.304 81.2646C183.259 81.1299 183.327 80.9888 183.458 80.9489C183.588 80.909 183.731 80.9864 183.776 81.1211C185.3 85.5802 186.538 90.0506 187.503 94.4972C187.531 94.6307 187.448 94.7618 187.314 94.7892Z"
		fill="#3B7172" />
	<path
		d="M170.977 100.398C172.651 103.687 175.376 105.744 178.667 106.594C181.949 107.423 185.834 107.031 189.492 104.914C188.006 101.022 184.969 98.4783 181.549 97.6983C178.119 96.8971 174.342 97.8406 170.977 100.398Z"
		fill="#4D878B" />
	<path
		d="M187.02 104.108C186.975 104.234 186.837 104.304 186.71 104.264C182.5 102.95 178.3 101.915 174.139 101.155C174.012 101.133 173.941 101.016 173.977 100.892C174.015 100.768 174.145 100.686 174.272 100.708C178.442 101.465 182.651 102.496 186.871 103.807C186.998 103.846 187.065 103.981 187.02 104.108Z"
		fill="#3B7172" />
	<path
		d="M203.428 92.8224C205.891 96.9321 206.278 101.336 204.942 104.844C203.625 108.369 200.637 110.981 196.571 112.128C194.779 108.275 194.575 104.36 195.742 100.868C196.899 97.41 199.475 94.3537 203.428 92.8224Z"
		fill="#4D878B" />
	<path
		d="M197.643 109.693C197.767 109.75 197.912 109.694 197.966 109.567C199.74 105.376 201.313 101.004 202.669 96.4728C202.709 96.3367 202.633 96.182 202.498 96.1271C202.364 96.0721 202.224 96.1396 202.184 96.2756C200.84 100.803 199.281 105.17 197.514 109.361C197.462 109.487 197.518 109.635 197.643 109.693Z"
		fill="#3B7172" />
	<path
		d="M159.041 54.9169C158.841 54.9269 158.685 55.0966 158.694 55.2988L159.19 65.9904L147.321 57.0684C147.161 56.9474 146.931 56.9798 146.811 57.1408C146.69 57.3018 146.722 57.5314 146.883 57.6525L155.525 64.1496L147.596 66.1876C147.401 66.2375 147.283 66.4372 147.333 66.6331C147.383 66.829 147.582 66.9463 147.778 66.8964L156.199 64.7312C156.22 64.7249 156.232 64.7049 156.252 64.6962L175.355 79.0582C175.517 79.1792 175.745 79.1468 175.866 78.9858C175.987 78.8248 175.955 78.5952 175.793 78.4741L159.945 66.5595L159.42 55.2651C159.413 55.0641 159.242 54.9081 159.041 54.9169Z"
		fill="#3B7172" />
	<path
		d="M139.371 51.5223C145.509 50.1632 150.789 54.1556 151.167 60.4405C145.028 61.8008 139.747 57.8072 139.371 51.5223Z"
		fill="#4D878B" />
	<path
		d="M149.602 59.2587C149.663 59.1775 149.647 59.064 149.566 59.0028L141.556 52.9463C141.475 52.8851 141.362 52.9014 141.301 52.9825C141.24 53.0636 141.256 53.1772 141.337 53.2383L149.346 59.2948C149.427 59.3548 149.541 59.3385 149.602 59.2587Z"
		fill="#3B7172" />
	<path
		d="M138.7 68.6711C141.563 63.0651 147.999 61.53 153.077 65.2416C150.216 70.8476 143.779 72.3826 138.7 68.6711Z"
		fill="#4D878B" />
	<path
		d="M151.172 65.6971C151.148 65.5985 151.05 65.5386 150.952 65.561L141.19 67.8898C141.092 67.9135 141.032 68.0121 141.054 68.1095C141.078 68.2081 141.176 68.268 141.273 68.2443L151.036 65.9155C151.134 65.893 151.194 65.7944 151.172 65.6971Z"
		fill="#3B7172" />
	<path
		d="M158.641 47.2217C154.066 51.5398 154.393 58.1592 159.369 62.0067C163.943 57.6887 163.618 51.0693 158.641 47.2217Z"
		fill="#4D878B" />
	<path
		d="M159.272 60.0462C159.171 60.0511 159.085 59.9738 159.08 59.8727L158.587 49.8325C158.582 49.7314 158.659 49.6466 158.76 49.6416C158.861 49.6366 158.947 49.714 158.952 49.8151L159.445 59.8552C159.45 59.955 159.373 60.0412 159.272 60.0462Z"
		fill="#3B7172" />
	<path
		d="M25.2035 114.147C24.8609 114.076 24.6515 113.74 24.735 113.396C29.187 93.0121 42.6164 75.0009 60.4404 64.3655C60.7432 64.182 61.1307 64.2793 61.3064 64.5826C61.4821 64.8859 61.3849 65.2765 61.0883 65.4562C43.5621 75.9082 30.3395 93.6523 25.9736 113.665C25.8913 114.002 25.5462 114.218 25.2035 114.147Z"
		fill="#3B7172" />
	<path
		d="M76.0565 58.0518C71.6831 68.0882 64.1061 71.9496 53.4204 69.8392C53.5487 67.0861 54.4509 64.6413 55.794 62.4423C57.2357 60.3968 59.086 58.5311 61.3637 57.4416C65.8007 55.0117 71.5049 55.2026 76.0565 58.0518Z"
		fill="#4D878B" />
	<path
		d="M56.1803 67.8474C56.28 67.9909 56.4769 68.0271 56.6202 67.9285C61.3837 64.6512 66.5184 61.9144 71.9099 59.8327C72.0743 59.7753 72.1578 59.5969 72.0955 59.4321C72.0344 59.2674 71.8501 59.1825 71.6843 59.2399C66.2443 61.3403 61.0659 64.1009 56.2613 67.4056C56.1168 67.5054 56.0806 67.7038 56.1803 67.8474Z"
		fill="#3B7172" />
	<path
		d="M44.4131 51.5934C46.4391 53.458 47.7674 55.6657 48.5524 57.9782C49.3473 60.3095 49.5442 62.6682 49.4059 65.1118C49.2638 67.5541 48.5773 69.8205 47.6328 72.1393C47.1469 73.2837 46.5176 74.3557 45.8161 75.4315C45.1383 76.5322 44.3371 77.583 43.3989 78.5814C38.7874 75.6224 36.0837 71.3555 36.0288 66.2787C35.9802 63.7427 36.7328 61.1806 38.0698 58.571C38.7713 57.303 39.6784 56.0887 40.7213 54.8944C41.2496 54.3041 41.799 53.7051 42.417 53.156C43.0463 52.6181 43.7116 52.0964 44.4131 51.5934Z"
		fill="#4D878B" />
	<path
		d="M43.045 75.1794C43.2219 75.1569 43.3528 74.996 43.3378 74.8175C42.8444 68.907 43.0562 62.8042 43.9197 56.4769C43.9446 56.2847 43.8076 56.1387 43.6107 56.1524C43.4151 56.1649 43.2344 56.3321 43.2095 56.5231C42.361 62.8542 42.1703 68.9706 42.6949 74.8986C42.7111 75.0758 42.8668 75.2019 43.045 75.1794Z"
		fill="#3B7172" />
	<path
		d="M23.2486 71.9121C28.1952 74.2796 30.9875 78.7125 32.0167 83.3201C32.5874 85.6826 32.7132 88.1237 32.4017 90.5585C32.1749 93.0495 31.4012 95.4744 30.3147 97.9953C25.0565 96.5739 21.1341 93.2829 19.5916 88.4382C18.1238 83.717 19.0408 77.3884 23.2486 71.9121Z"
		fill="#4D878B" />
	<path
		d="M28.9254 94.8366C29.0861 94.7605 29.1584 94.5659 29.0898 94.3986C28.027 91.6792 27.0576 88.8176 26.219 85.8498C25.4714 82.942 24.7226 79.8307 24.2491 76.7232C24.2205 76.536 24.0448 76.4374 23.8566 76.5035C23.6685 76.5697 23.5389 76.7769 23.5676 76.9641C24.0984 80.1078 24.8049 83.1841 25.5824 86.1069C26.4757 89.1033 27.3803 91.9213 28.5104 94.6732C28.5777 94.8392 28.7646 94.9115 28.9254 94.8366Z"
		fill="#3B7172" />
	<path
		d="M63.3337 87.6656C61.8646 85.4092 60.1563 83.4611 58.2537 82.0122C56.361 80.5707 54.2653 79.6185 52.0387 79.2304C47.6079 78.4217 42.7435 80.1951 39.3469 84.4795C41.2035 86.4875 43.3316 87.9314 45.5046 88.9348C46.5912 89.4365 47.6889 89.8259 48.7766 90.1142C49.8893 90.4212 50.9958 90.6309 52.0736 90.7432C53.1513 90.8555 54.2005 90.8717 55.2023 90.7869C56.2003 90.697 57.2382 90.5872 58.1752 90.3289C60.0243 89.7835 61.8335 89.0184 63.3337 87.6656Z"
		fill="#4D878B" />
	<path
		d="M42.7049 84.4233C42.7024 84.2536 42.8419 84.1188 43.0151 84.1226C45.9108 84.1962 48.6296 84.3247 51.4194 84.7316C52.7937 84.9175 54.1406 85.1309 55.4564 85.3693C56.7759 85.6127 58.1278 85.9484 59.4137 86.2729C59.5694 86.3128 59.6928 86.4713 59.6903 86.6248C59.6878 86.7783 59.5607 86.8694 59.4037 86.8295C54.2116 85.4954 48.7592 84.8227 43.0251 84.7341C42.8519 84.7316 42.7074 84.5931 42.7049 84.4233Z"
		fill="#3B7172" />
	<path
		d="M52.0374 100.755C49.9553 99.0274 47.7636 97.6858 45.5059 96.8596C44.3782 96.4465 43.2294 96.157 42.0843 96.0097C40.9629 95.8762 39.8428 95.8825 38.7339 96.0335C37.6262 96.1845 36.5309 96.479 35.4656 96.9146C34.4002 97.3501 33.4645 97.9791 32.5325 98.7179C30.6311 100.178 29.2206 102.311 28.184 104.826C30.5775 106.173 33.0297 106.889 35.4095 107.188C37.8106 107.49 40.1406 107.378 42.2301 106.948C46.4142 106.056 49.8644 104.107 52.0374 100.755Z"
		fill="#4D878B" />
	<path
		d="M31.4136 103.769C31.3575 103.608 31.446 103.435 31.6104 103.385C32.986 102.977 34.3043 102.59 35.6786 102.273C37.0679 101.961 38.4373 101.688 39.788 101.451C42.4382 100.953 45.233 100.709 47.8533 100.559C48.0128 100.55 48.1773 100.665 48.2221 100.812C48.2682 100.961 48.1773 101.087 48.0178 101.095C46.6982 101.168 45.3551 101.274 43.9907 101.416C42.6238 101.557 41.3342 101.778 39.9699 102.011C38.6217 102.252 37.2374 102.522 35.8655 102.843C34.5336 103.18 33.1829 103.554 31.8148 103.968C31.6491 104.019 31.4697 103.93 31.4136 103.769Z"
		fill="#3B7172" />
	<path
		d="M25.4664 162.201L24.512 161.676C23.7283 162.952 23.0305 164.243 22.314 165.58C20.6058 160.062 19.447 154.379 18.8302 148.637C18.7119 147.749 18.8738 146.833 19.199 146.007L19.2202 145.955L18.1599 145.592C17.7774 146.58 17.5755 147.687 17.7188 148.756C17.9742 151.079 18.2969 153.397 18.7368 155.692C17.6029 154.915 16.499 154.102 15.4087 153.256C14.306 152.412 13.2045 151.536 12.1467 150.625L11.4626 151.572C13.9322 153.637 16.4678 155.534 19.0346 157.265C19.7037 160.466 20.5198 163.638 21.5029 166.759C22.5122 169.871 23.6734 172.933 24.9855 175.93L26.006 175.475C24.8198 172.726 23.7121 169.939 22.79 167.087C23.6323 165.412 24.5469 163.776 25.4664 162.201Z"
		fill="#3B7172" />
	<path
		d="M27.5398 126.85C22.8586 127.537 19.2028 130.211 17.5095 133.999C15.7838 137.752 16.0206 142.534 18.6384 146.586C23.0268 144.627 26.0533 141.563 27.5759 138.182C29.106 134.771 29.187 130.99 27.5398 126.85Z"
		fill="#4D878B" />
	<path
		d="M19.5455 143.742C19.3997 143.693 19.3225 143.536 19.3723 143.391C21.0233 138.589 23.0567 134.066 25.4067 129.893C25.4752 129.767 25.6434 129.721 25.7805 129.789C25.9188 129.858 25.9736 130.014 25.9051 130.139C23.5664 134.29 21.5429 138.789 19.9006 143.569C19.8508 143.712 19.6913 143.789 19.5455 143.742Z"
		fill="#3B7172" />
	<path
		d="M0.499108 137.933C-0.213604 143.666 1.58562 148.811 4.74797 151.964C7.90907 155.159 12.3099 156.374 17.0248 155.395C16.7918 150.459 15.0823 146.32 12.224 143.159C9.36191 140.037 5.31614 137.871 0.499108 137.933Z"
		fill="#4D878B" />
	<path
		d="M14.676 153.422C14.5788 153.546 14.4019 153.563 14.2823 153.458C10.3001 149.982 6.50105 146.042 2.97113 141.654C2.86646 141.522 2.87394 141.315 2.98733 141.191C3.10071 141.068 3.27763 141.076 3.38229 141.209C6.89103 145.593 10.6714 149.532 14.6349 153.006C14.7558 153.112 14.7732 153.297 14.676 153.422Z"
		fill="#3B7172" />
	<path
		d="M36.7914 148.705C37.3695 152.509 36.2357 156.045 33.8808 159.087C31.4934 162.096 27.8264 164.627 23.068 165.384C21.6076 160.815 22.6318 156.378 25.2397 153.39C27.885 150.354 31.9931 148.765 36.7914 148.705Z"
		fill="#4D878B" />
	<path
		d="M24.6791 162.89C24.8087 162.97 24.9819 162.933 25.0653 162.806C27.9037 158.628 31.0225 154.823 34.3543 151.416C34.4564 151.312 34.4465 151.166 34.3319 151.087C34.2172 151.007 34.0415 151.024 33.9394 151.128C30.5926 154.532 27.4477 158.34 24.5993 162.517C24.5109 162.644 24.5495 162.81 24.6791 162.89Z"
		fill="#3B7172" />
	<path
		d="M56.2476 203.97C56.0209 203.975 55.8165 204.163 55.7929 204.394C55.5948 206.422 55.4278 208.528 55.3854 210.606C55.3567 211.653 55.3418 212.714 55.3418 213.785C55.358 214.837 55.3879 215.899 55.434 216.973C53.0354 215.201 50.7877 213.236 48.571 211.243C46.4154 209.185 44.2823 207.095 42.3323 204.835C42.1703 204.654 41.8925 204.637 41.7093 204.797C41.5262 204.956 41.5112 205.235 41.6744 205.418C44.5776 208.705 47.7213 211.78 51.0668 214.612C47.8372 215.222 44.4954 215.69 41.1062 215.953C40.8558 215.974 40.6863 216.195 40.7312 216.448C40.7761 216.703 41.0178 216.892 41.2695 216.871C43.065 216.731 44.8629 216.515 46.6322 216.258C48.3866 216.017 50.131 215.712 51.8555 215.353C51.8817 215.348 51.8966 215.325 51.9203 215.315C59.3963 221.48 67.8566 226.454 76.9076 229.923C77.1356 230.014 77.3898 229.904 77.4745 229.676C77.5592 229.448 77.4458 229.191 77.2203 229.1C69.7829 226.26 62.763 222.362 56.3399 217.662C56.1056 213.106 56.1654 208.708 56.6164 204.375C56.6389 204.146 56.4757 203.966 56.2476 203.97Z"
		fill="#3B7172" />
	<path
		d="M34.8463 195.841C42.3709 196.801 46.6708 202.08 46.226 209.631C44.3283 209.795 42.5565 209.467 40.9342 208.814C39.3667 208.111 37.9251 207.103 36.8698 205.769C34.6743 203.167 33.8507 199.47 34.8463 195.841Z"
		fill="#4D878B" />
	<path
		d="M44.5676 207.933C44.6548 207.849 44.6573 207.71 44.5738 207.621C41.7865 204.692 39.1936 201.577 36.8249 198.3C36.7551 198.2 36.6193 198.176 36.5209 198.246C36.4225 198.316 36.3988 198.456 36.4686 198.557C38.8497 201.85 41.4551 204.98 44.2561 207.924C44.3408 208.014 44.4804 208.018 44.5676 207.933Z"
		fill="#3B7172" />
	<path
		d="M29.3826 216.432C31.669 213.383 34.9721 212.019 38.2865 211.969C41.6532 211.9 45.0037 213.171 48.0153 215.7C46.074 218.963 43.1222 220.888 39.6745 221.128C36.2867 221.336 32.4141 219.821 29.3826 216.432Z"
		fill="#4D878B" />
	<path
		d="M45.6242 216.001C45.6017 215.878 45.4846 215.789 45.36 215.804C43.2966 216.041 41.2432 216.167 39.1126 216.28C37.013 216.359 34.8824 216.376 32.7144 216.336C32.586 216.332 32.4938 216.437 32.51 216.57C32.525 216.706 32.6458 216.816 32.7779 216.816C37.1127 216.894 41.323 216.719 45.441 216.251C45.5644 216.237 45.6466 216.125 45.6242 216.001Z"
		fill="#3B7172" />
	<path
		d="M57.6044 195.372C54.5629 197.573 52.6017 200.482 52.2068 203.577C51.8118 206.634 52.9606 209.922 55.7778 212.225C58.5788 209.703 59.9793 206.45 60.2372 203.456C60.3656 201.95 60.2397 200.452 59.7825 199.116C59.375 197.723 58.6174 196.506 57.6044 195.372Z"
		fill="#4D878B" />
	<path
		d="M55.8227 209.91C55.7055 209.913 55.6133 209.821 55.6171 209.704C55.7504 205.786 56.179 201.934 56.8282 198.241C56.8469 198.13 56.9528 198.04 57.0637 198.037C57.1746 198.036 57.2481 198.124 57.2294 198.235C56.584 201.929 56.1628 205.779 56.0419 209.689C56.037 209.806 55.9398 209.906 55.8227 209.91Z"
		fill="#3B7172" />
	<path
		d="M72.0669 91.8726C65.7571 92.9958 60.5364 97.4262 58.3945 103.475L29.673 184.562L55.2272 194.333L75.4697 134.228L72.0669 91.8726Z"
		fill="#AF594A" />
	<path
		d="M65.7883 162.971L37.9141 174.534L42.2913 170.399C48.5649 164.473 57.1946 161.734 65.731 162.962L65.7883 162.971Z"
		fill="black" />
	<path
		d="M157.817 128.219L163.112 140.053L163.926 125.495L154.4 90.5098L153.122 90.3763L152.561 98.9725C151.907 109.005 153.711 119.045 157.817 128.219Z"
		fill="#AF594A" />
	<path
		d="M166.425 215.763C162.362 198.991 160.786 181.711 161.749 164.479L163.113 140.053L157.818 128.221C153.712 119.047 151.908 109.006 152.562 98.9737L153.123 90.3775L139.915 88.9997L139.641 94.6282C139.198 103.709 131.718 110.843 122.641 110.843H101.31C91.5467 110.843 83.7842 102.633 84.315 92.8685L84.4807 89.8159L72.068 91.8751L71.7765 99.2246C71.3952 108.815 68.7661 118.159 64.1534 126.54L70.7597 168.275C73.3801 184.825 73.9296 201.637 72.3995 218.323L69.1187 254.079L73.7128 255.432C103.933 264.331 136.094 264.185 166.233 255.011L175.268 252.262L166.425 215.763Z"
		fill="#EFBB5A" />
	<path
		d="M101.309 110.842H122.639C131.717 110.842 139.196 103.707 139.64 94.6257L139.914 88.9973L108.906 85.7612L84.4807 89.8134L84.315 92.8661C83.7817 102.633 91.5443 110.842 101.309 110.842Z"
		fill="#AF594A" />
	<path
		d="M72.0668 91.8726L63.4482 122.087L64.1522 126.537C68.7649 118.157 71.394 108.812 71.7753 99.2221L72.0668 91.8726Z"
		fill="#AF594A" />
	<path
		d="M165.209 245.606C159.096 246.828 152.097 248.117 144.606 249.056C137.118 250.004 129.145 250.606 121.159 250.714C113.174 250.809 105.187 250.411 97.6771 249.652C90.165 248.905 83.1351 247.793 76.9935 246.728C82.7002 249.224 89.6018 251.464 97.1787 252.978C104.751 254.502 112.985 255.297 121.217 255.198C129.448 255.087 137.66 254.084 145.19 252.368C152.725 250.662 159.567 248.246 165.209 245.606Z"
		fill="#E99832" />
	<path
		d="M152.088 183.833C143.722 190.01 132.687 197.607 120.85 203.812C109.052 210.088 96.5595 214.915 86.7435 218.34C91.9119 217.82 97.8441 216.673 103.999 214.793C110.156 212.921 116.527 210.318 122.592 207.12C128.653 203.914 134.397 200.119 139.417 196.089C144.443 192.065 148.74 187.81 152.088 183.833Z"
		fill="#E99832" />
	<path
		d="M130.319 193.628C123.55 193.888 114.826 193.912 106.185 192.862C97.5376 191.866 89.0586 189.807 82.537 187.976C88.4281 191.311 97.0068 194.264 105.899 195.283C114.783 196.365 123.814 195.497 130.319 193.628Z"
		fill="#E99832" />
	<path
		d="M81.4019 94.8528C80.8636 96.5614 80.6717 98.7179 81.063 100.966C81.443 103.209 82.4062 105.533 83.8951 107.495C85.3828 109.457 87.3603 111.008 89.4174 111.975C91.4746 112.955 93.6002 113.347 95.3882 113.286C92.0589 111.989 88.2536 109.605 85.6607 106.151C83.0316 102.723 81.757 98.4121 81.4019 94.8528Z"
		fill="#E99832" />
	<path
		d="M140.699 102.189C140.12 105.295 137.998 108.299 134.966 110.326C131.958 112.412 128.099 113.325 124.167 113.558C120.222 113.802 116.186 113.436 112.321 113.333C108.465 113.21 104.752 113.446 101.734 114.334C104.873 114.194 108.405 114.53 112.194 115.022C115.977 115.492 120.089 116.068 124.307 115.812C128.48 115.581 132.864 114.338 135.984 111.677C137.539 110.384 138.796 108.83 139.605 107.167C140.442 105.517 140.756 103.749 140.699 102.189Z"
		fill="#E99832" />
	<path
		d="M157.245 136.37C154.307 131.756 151.298 125.365 149.902 118.522C148.439 111.693 148.634 104.631 149.477 99.2234C148.45 101.758 147.646 104.873 147.348 108.278C147.04 111.678 147.238 115.355 147.981 118.926C148.731 122.494 150.023 125.941 151.666 128.932C153.304 131.931 155.289 134.462 157.245 136.37Z"
		fill="#E99832" />
	<path
		d="M77.8433 102.995C76.8777 106.542 75.4971 111.071 73.6119 115.402C71.7517 119.745 69.3992 123.854 67.4803 126.988C70.0882 124.405 72.9129 120.388 74.8218 115.927C76.7593 111.48 77.7499 106.666 77.8433 102.995Z"
		fill="#E99832" />
	<path
		d="M133.648 134.049C129.308 135.204 124.328 136.41 118.975 137.329C113.625 138.255 107.906 138.892 102.168 139.122C96.4287 139.339 90.6784 139.146 85.272 138.638C79.8631 138.138 74.8056 137.321 70.3885 136.506C74.4792 138.348 79.4557 139.983 84.9294 141.035C90.3993 142.097 96.3565 142.574 102.292 142.349C108.228 142.113 114.131 141.176 119.502 139.693C124.877 138.218 129.712 136.203 133.648 134.049Z"
		fill="#E99832" />
	<path
		d="M108.905 85.7624C112.6 84.0814 115.669 81.2247 118.121 77.9849C118.802 77.0851 119.431 76.1516 120.034 75.2006L119.498 68.9294L99.1985 76.9378V86.973C102.423 87.6419 105.887 87.1352 108.905 85.7624Z"
		fill="black" />
	<path
		d="M118.121 77.9849C115.669 81.2247 112.6 84.0801 108.905 85.7624C105.886 87.1365 102.423 87.6431 99.1985 86.9717V99.7687H122.135L120.034 75.2018C119.432 76.1516 118.803 77.0851 118.121 77.9849Z"
		fill="#AF594A" />
	<path
		d="M82.3439 16.2151L76.9487 29.4639L103.753 34.1302L130.557 38.7977L129.942 24.5031C124.267 21.7874 116.007 19.2653 106.617 17.6304C97.2261 15.9955 88.6001 15.5774 82.3439 16.2151Z"
		fill="#49467A" />
	<path
		d="M129.303 9.66315V9.66063C128.706 6.70287 120.235 3.00256 109.479 1.12931C98.725 -0.742693 89.5034 -0.122425 87.9459 2.45969H87.9447L87.9434 2.46216C87.9322 2.48213 87.9297 2.50336 87.9185 2.52333L82.3427 16.2164C88.6001 15.5787 97.2249 15.9955 106.615 17.6304C116.005 19.2653 124.264 21.7875 129.94 24.5031L129.304 9.72553C129.303 9.70432 129.307 9.68436 129.303 9.66315Z"
		fill="#EFC7B8" />
	<path
		d="M155.84 49.1299C154.5 56.0663 129.567 57.0634 100.153 51.3576C70.7386 45.6517 47.9817 35.4019 49.3236 28.4655C50.6656 21.5291 75.5968 20.532 105.011 26.2378C134.424 31.9437 157.181 42.1935 155.84 49.1299Z"
		fill="#E1B6A4" />
	<path
		d="M79.3385 69.828C83.8713 69.828 87.5459 66.1475 87.5459 61.6074C87.5459 57.0673 83.8713 53.3868 79.3385 53.3868C74.8057 53.3868 71.1311 57.0673 71.1311 61.6074C71.1311 66.1475 74.8057 69.828 79.3385 69.828Z"
		fill="#A34D41" />
	<path
		d="M79.3385 66.2499C81.8984 66.2499 83.9736 64.1714 83.9736 61.6074C83.9736 59.0434 81.8984 56.9648 79.3385 56.9648C76.7786 56.9648 74.7034 59.0434 74.7034 61.6074C74.7034 64.1714 76.7786 66.2499 79.3385 66.2499Z"
		fill="#934138" />
	<path
		d="M116.181 52.3634V57.5601H124.857V47.5V43.8508C122.855 41.9613 118.411 39.8847 112.609 38.1038V42.6914C112.609 46.2395 113.876 49.6703 116.181 52.3634Z"
		fill="black" />
	<path
		d="M116.181 57.5601V52.3635C113.876 49.6703 112.609 46.2383 112.609 42.6915V38.1038C109.609 37.1828 106.252 36.3391 102.669 35.6427C91.3711 33.4513 81.5389 33.4201 78.2469 35.327V38.9762V59.6044C78.2469 72.4962 88.6809 82.947 101.552 82.947C114.423 82.947 124.857 72.4962 124.857 59.6044V57.5601H116.181Z"
		fill="#AF594A" />
	<path
		d="M127.707 69.828C132.24 69.828 135.914 66.1475 135.914 61.6074C135.914 57.0673 132.24 53.3868 127.707 53.3868C123.174 53.3868 119.5 57.0673 119.5 61.6074C119.5 66.1475 123.174 69.828 127.707 69.828Z"
		fill="#AF594A" />
	<path
		d="M127.707 66.2499C130.267 66.2499 132.342 64.1714 132.342 61.6074C132.342 59.0434 130.267 56.9648 127.707 56.9648C125.147 56.9648 123.072 59.0434 123.072 61.6074C123.072 64.1714 125.147 66.2499 127.707 66.2499Z"
		fill="#A34D41" />
	<path
		d="M102.837 40.7396C99.9261 40.4138 97.165 41.3436 95.0879 43.0958L109.875 44.7519C108.236 42.5841 105.749 41.0666 102.837 40.7396Z"
		fill="#090A10" />
	<path
		d="M83.743 40.2292C85.6382 39.9034 87.4349 40.8332 88.7869 42.5841L79.1615 44.2402C80.2281 42.0724 81.8479 40.5549 83.743 40.2292Z"
		fill="#090A10" />
	<path
		d="M86.356 48.7006C86.356 49.704 85.7342 50.5177 84.9667 50.5177C84.1992 50.5177 83.5774 49.704 83.5774 48.7006C83.5774 47.6972 84.1992 46.8835 84.9667 46.8835C85.7342 46.8835 86.356 47.6972 86.356 48.7006Z"
		fill="#090A10" />
	<path
		d="M100.588 48.7006C100.588 49.704 99.9661 50.5177 99.1985 50.5177C98.431 50.5177 97.8092 49.704 97.8092 48.7006C97.8092 47.6972 98.431 46.8835 99.1985 46.8835C99.9661 46.8835 100.588 47.6972 100.588 48.7006Z"
		fill="#090A10" />
	<path
		d="M97.4092 61.3416C94.0077 60.9821 90.6048 60.6227 87.2032 60.2633C88.4131 61.6348 90.0379 62.768 91.8533 62.9777C93.6687 63.1886 95.919 62.4011 97.4092 61.3416Z"
		fill="#934138" />
	<path
		d="M103.586 66.2562C97.56 67.1747 91.3312 66.7392 85.4912 64.9907C85.9784 67.8 86.9366 70.8314 88.9551 72.8406C91.2054 75.082 94.8985 75.585 97.7917 74.2809C100.685 72.9754 103.081 69.3937 103.586 66.2562Z"
		fill="white" />
	<path
		d="M208.308 150.294C208.181 148.571 209.088 147.033 209.903 145.63C210.691 144.215 211.458 142.472 210.976 140.928C210.405 139.087 208.235 138.26 208.287 136.177C208.357 134.506 209.855 133.376 210.354 131.814C210.724 130.538 210.722 128.802 209.744 128.148C209.246 127.814 208.633 127.607 208.333 127.019C208.045 126.458 208.103 125.672 208.261 124.957C208.409 124.238 208.704 123.554 208.808 122.833C209.013 121.294 209.169 118.681 207.002 117.867C204.868 117.064 203.206 119.312 202.508 120.824C202.177 121.526 201.965 122.295 201.723 123.041C201.47 123.784 201.093 124.538 200.541 124.915C199.959 125.31 199.347 125.2 198.741 125.272C197.591 125.408 196.622 127.196 196.426 128.732C196.14 130.629 197.117 132.424 196.576 134.215C195.938 136.459 193.605 136.718 192.57 138.75C191.704 140.457 192.083 142.757 192.696 144.535C193.279 146.319 194.083 148.155 193.906 150.14C193.743 151.954 192.82 153.439 192.546 155.246C192.146 158.062 193.543 160.987 195.327 162.388C197.113 163.801 199.973 163.71 201.93 163.956C203.772 163.21 206.565 162.567 208 161.002C209.436 159.424 210.388 156.887 209.781 154.592C209.412 153.112 208.423 151.868 208.308 150.294Z"
		fill="#4D878B" />
	<path
		d="M208.247 141.608C208.169 141.486 208.024 141.469 207.924 141.573C205.642 143.918 203.446 146.443 201.351 149.145C201.464 144.44 201.909 139.745 202.68 135.102C204.4 133.45 206.151 131.888 207.936 130.421C208.049 130.327 208.085 130.143 208.028 130.01C207.969 129.877 207.827 129.843 207.711 129.935C206.067 131.292 204.426 132.722 202.835 134.235C203.568 130.123 204.565 126.057 205.824 122.073C205.876 121.909 205.82 121.745 205.698 121.706C205.577 121.667 205.437 121.77 205.385 121.934C203.92 126.552 202.806 131.282 202.064 136.069C201.018 134.065 200.05 131.997 199.149 129.869C199.088 129.726 198.946 129.695 198.831 129.801C198.716 129.907 198.672 130.109 198.733 130.252C199.721 132.557 200.79 134.79 201.929 136.944C201.298 141.186 200.939 145.47 200.882 149.76C198.763 146.76 196.75 143.56 194.921 140.179C194.844 140.039 194.699 140.024 194.598 140.144C194.496 140.265 194.476 140.476 194.554 140.616C196.474 144.165 198.616 147.516 200.878 150.645C200.862 153.989 200.989 157.339 201.329 160.669C201.344 160.841 201.459 160.969 201.585 160.957C201.711 160.944 201.802 160.795 201.787 160.624C201.434 157.103 201.293 153.563 201.341 150.026C203.53 147.162 205.79 144.487 208.21 142.018C208.308 141.914 208.326 141.731 208.247 141.608Z"
		fill="#3B7172" />
	<path
		d="M196.476 138.862C196.317 137.573 196.92 136.383 197.449 135.284C197.963 134.181 198.434 132.816 197.991 131.679C197.467 130.325 195.822 129.847 195.725 128.291C195.663 127.041 196.683 126.088 196.93 124.877C197.109 123.894 196.96 122.595 196.193 122.197C195.801 121.992 195.337 121.893 195.066 121.484C194.807 121.095 194.779 120.509 194.833 119.968C194.88 119.425 195.027 118.891 195.037 118.35C195.05 117.197 194.893 115.258 193.23 114.893C191.587 114.533 190.615 116.327 190.246 117.484C190.071 118.023 189.995 118.601 189.882 119.161C189.764 119.722 189.556 120.301 189.186 120.62C188.797 120.956 188.337 120.927 187.901 121.028C187.069 121.222 186.519 122.583 186.493 123.702C186.436 125.086 187.278 126.311 187.007 127.643C186.689 129.306 184.994 129.636 184.355 131.151C183.821 132.424 184.223 134.049 184.755 135.299C185.271 136.555 185.938 137.846 185.881 139.288C185.829 140.603 185.196 141.705 185.044 143.013C184.824 145.049 185.901 147.118 187.23 148.108C188.559 149.103 190.664 149.007 192.109 149.171C193.456 148.604 195.507 148.104 196.542 146.912C197.578 145.713 198.222 143.771 197.71 142.051C197.388 140.943 196.622 140.038 196.476 138.862Z"
		fill="#4D878B" />
	<path
		d="M196.027 132.352C195.962 132.264 195.856 132.26 195.787 132.344C194.24 134.229 192.75 136.207 191.317 138.277C191.212 134.811 191.287 131.341 191.541 127.882C192.688 126.553 193.858 125.272 195.051 124.037C195.127 123.959 195.139 123.819 195.087 123.725C195.033 123.632 194.926 123.618 194.849 123.697C193.749 124.836 192.656 126.014 191.593 127.236C191.845 124.168 192.242 121.112 192.783 118.082C192.806 117.957 192.75 117.842 192.657 117.826C192.565 117.81 192.473 117.897 192.451 118.022C191.82 121.531 191.384 125.076 191.152 128.634C190.255 127.233 189.398 125.796 188.573 124.321C188.517 124.222 188.411 124.21 188.335 124.294C188.259 124.379 188.243 124.529 188.299 124.629C189.198 126.225 190.138 127.776 191.111 129.283C190.919 132.434 190.877 135.594 190.998 138.748C189.322 136.623 187.698 134.389 186.163 132.049C186.1 131.953 185.992 131.95 185.924 132.042C185.855 132.134 185.853 132.288 185.916 132.384C187.526 134.84 189.247 137.18 191.026 139.398C191.135 141.858 191.323 144.315 191.623 146.758C191.637 146.884 191.724 146.978 191.816 146.967C191.908 146.956 191.973 146.845 191.958 146.719C191.643 144.131 191.442 141.529 191.344 138.925C192.843 136.734 194.384 134.644 196.023 132.66C196.088 132.576 196.09 132.439 196.027 132.352Z"
		fill="#3B7172" />
	<path
		d="M158.749 165.956C157.683 164.174 157.626 162.083 157.4 160.14C157.2 158.193 156.568 155.861 155.006 154.631C153.143 153.168 150.792 153.939 149.225 152.075C147.95 150.596 148.138 148.464 147.084 146.771C146.259 145.387 144.602 144.074 143.429 144.422C142.814 144.607 142.262 144.968 141.538 144.825C140.85 144.689 140.178 144.115 139.633 143.501C139.094 142.881 138.586 142.217 137.982 141.67C136.697 140.491 134.2 138.957 132.421 140.587C130.62 142.236 131.811 144.749 132.644 146.172C133.039 146.836 133.603 147.392 134.045 148.033C134.495 148.667 134.875 149.414 134.828 150.081C134.778 150.781 134.271 151.234 133.927 151.767C133.252 152.807 133.981 154.522 134.892 155.617C136.047 156.943 137.987 157.41 138.78 159.009C139.741 161.014 138.016 162.762 138.296 164.813C138.526 166.536 140.056 167.905 141.458 168.925C142.877 169.926 144.451 171 145.131 172.721C145.753 174.292 145.403 175.949 145.752 177.553C146.272 180.054 148.396 182.047 150.511 182.853C152.622 183.651 155.551 182.896 157.637 182.701C159.354 181.518 162.079 180.215 163.084 178.048C164.09 175.892 164.038 172.526 162.365 170.096C161.277 168.542 159.722 167.583 158.749 165.956Z"
		fill="#4D878B" />
	<path
		d="M153.25 157.096C153.101 157.027 152.969 157.106 152.956 157.272C152.678 160.997 152.237 164.65 151.653 168.21C149.392 163.766 146.879 159.451 144.129 155.291C144.245 152.776 144.288 150.224 144.249 147.643C144.246 147.48 144.122 147.303 143.965 147.253C143.808 147.203 143.686 147.295 143.69 147.457C143.723 149.842 143.706 152.188 143.609 154.517C141.133 150.848 138.468 147.308 135.625 143.916C135.508 143.776 135.33 143.732 135.228 143.819C135.126 143.905 135.137 144.089 135.254 144.228C138.527 148.124 141.563 152.221 144.331 156.492C142.118 155.658 139.892 154.908 137.671 154.234C137.522 154.189 137.397 154.279 137.392 154.434C137.387 154.59 137.504 154.752 137.654 154.797C140.047 155.532 142.442 156.357 144.837 157.27C147.269 161.063 149.506 164.983 151.514 169.018C148.052 167.266 144.587 165.706 141.1 164.353C140.958 164.297 140.826 164.375 140.806 164.529C140.786 164.682 140.885 164.851 141.027 164.907C144.688 166.326 148.31 167.983 151.923 169.853C153.468 173.01 154.905 176.222 156.176 179.501C156.243 179.669 156.399 179.767 156.525 179.718C156.649 179.669 156.695 179.493 156.628 179.324C155.269 175.829 153.741 172.401 152.07 169.045C152.709 165.301 153.219 161.437 153.501 157.519C153.511 157.354 153.4 157.164 153.25 157.096Z"
		fill="#3B7172" />
	<path
		d="M172.774 180.499C172.533 178.557 173.262 176.73 173.778 174.962C174.322 173.2 174.621 170.933 173.718 169.287C172.639 167.328 170.34 167.147 169.646 164.965C169.061 163.225 169.966 161.435 169.63 159.583C169.393 158.082 168.39 156.357 167.256 156.257C166.66 156.206 166.061 156.331 165.478 155.96C164.926 155.607 164.533 154.878 164.263 154.155C164.004 153.43 163.776 152.681 163.431 152.001C162.703 150.537 161.011 148.376 158.937 149.223C156.831 150.082 157.055 152.645 157.301 154.152C157.423 154.857 157.732 155.522 157.898 156.223C158.075 156.921 158.153 157.692 157.886 158.251C157.609 158.838 157.012 159.059 156.533 159.402C155.593 160.072 155.641 161.781 156.044 163.024C156.582 164.546 158.086 165.611 158.207 167.252C158.321 169.299 156.217 170.178 155.715 172.008C155.29 173.542 156.1 175.234 156.919 176.601C157.766 177.953 158.706 179.436 158.639 181.135C158.579 182.686 157.65 183.943 157.336 185.41C156.819 187.689 157.842 190.151 159.307 191.65C160.772 193.138 163.538 193.667 165.372 194.333C167.286 194.021 170.096 194.008 171.799 192.56C173.5 191.124 174.77 188.207 174.28 185.46C173.949 183.698 172.993 182.272 172.774 180.499Z"
		fill="#4D878B" />
	<path
		d="M171.326 170.782C171.222 170.668 171.08 170.688 171.009 170.827C169.429 173.954 167.711 176.93 165.883 179.747C165.615 175.109 165.026 170.492 164.123 165.936C165.106 163.81 166.028 161.613 166.875 159.352C166.929 159.208 166.882 159.01 166.763 158.913C166.643 158.815 166.506 158.853 166.455 158.995C165.67 161.084 164.845 163.111 163.946 165.085C163.096 161.051 161.993 157.069 160.639 153.174C160.583 153.013 160.443 152.917 160.325 152.96C160.206 153.001 160.157 153.164 160.213 153.324C161.774 157.796 163 162.386 163.872 167.042C162.265 165.541 160.605 164.121 158.921 162.784C158.807 162.694 158.669 162.729 158.61 162.86C158.552 162.991 158.598 163.171 158.711 163.261C160.522 164.71 162.297 166.255 164.033 167.892C164.779 172.018 165.266 176.194 165.465 180.383C163.169 177.592 160.782 174.997 158.286 172.609C158.185 172.511 158.043 172.531 157.97 172.654C157.896 172.777 157.919 172.955 158.021 173.054C160.644 175.56 163.125 178.297 165.498 181.248C165.625 184.517 165.615 187.794 165.401 191.059C165.392 191.227 165.486 191.371 165.61 191.379C165.735 191.388 165.842 191.257 165.851 191.087C166.074 187.602 166.091 184.105 165.926 180.617C167.871 177.668 169.736 174.535 171.387 171.243C171.457 171.103 171.429 170.897 171.326 170.782Z"
		fill="#3B7172" />
	<path d="M180.5 277.136H158.178L144.552 175.499H166.874L180.5 277.136Z" fill="#EFC7B8" />
	<path d="M166.874 175.499L204.639 164.282L215.429 244.422L180.5 277.136L166.874 175.499Z" fill="#E1B6A4" />
	<path
		d="M154.4 90.5098C167.215 91.6255 178.333 99.8174 183.214 111.738L213.351 185.354L189.292 198.955L163.113 140.053L154.4 90.5098Z"
		fill="#AF594A" />
	<path
		d="M167.808 129.608L173.678 149.236L205.516 166.219L213.351 185.354L189.292 198.955L163.112 140.053L167.808 129.608Z"
		fill="black" />
	<path
		d="M153.919 125.666H163.343C165.61 125.666 167.524 127.356 167.809 129.608L170.543 151.222L208.754 179.456C215.825 184.681 216.354 195.081 209.847 200.996C203.744 206.546 194.189 205.597 189.293 198.954L161.527 161.275C158.361 159.86 155.903 157.218 154.715 153.954L152.171 146.963L151.534 147.953C150.228 149.979 147.277 150.002 145.94 147.995L145.762 147.727C144.643 146.046 144.28 143.972 144.761 142.011L147.541 130.677C148.261 127.734 150.894 125.666 153.919 125.666Z"
		fill="#AF594A" />
	<path d="M106.27 175.499L99.9424 134.227H132.083L125.756 175.499H106.27Z" fill="#D13C34" />
	<path d="M133.872 129.608H98.1506V134.227H133.872V129.608Z" fill="#32305F" />
	<path d="M130.018 124.99H102.006V129.608H130.018V124.99Z" fill="#49467A" />
	<path
		d="M117.373 124.99H114.651V118.57C114.651 116.645 115.318 114.762 116.53 113.267L123.518 104.646L125.631 106.363L118.644 114.984C117.825 115.996 117.373 117.269 117.373 118.57V124.99Z"
		fill="#32305F" />
	<path
		d="M37.9153 174.534L90.3258 152.793L100.589 138.444L101.553 144.732L113.778 142.513C118.619 141.634 123.072 145.359 123.072 150.287C123.072 156.651 118.204 161.957 111.872 162.491L94.5397 163.953L51.1727 197.465C44.2836 202.789 34.2334 200.19 30.7757 192.193C27.814 185.344 31.0286 177.391 37.9153 174.534Z"
		fill="#AF594A" />
</svg>