<svg width="235" height="260" viewBox="0 0 235 260" fill="none" xmlns="http://www.w3.org/2000/svg">
	<path
		d="M53.6428 191.5C53.9069 191.294 53.963 190.908 53.7661 190.64C41.8569 175.034 35.521 155.329 35.7415 135.709C35.7428 135.376 35.4736 135.101 35.1385 135.094C34.8033 135.088 34.5304 135.356 34.5279 135.696C34.3061 155.586 40.7206 175.544 52.803 191.379C53.0024 191.652 53.3774 191.706 53.6428 191.5Z"
		fill="#3B7172" />
	<path
		d="M36.7408 119.677C32.2527 122.232 29.4741 126.805 29.3034 131.576C29.1115 133.951 29.6996 136.354 30.6628 138.532C31.7692 140.707 33.308 142.662 35.4611 144.178C42.6618 136.639 43.1813 127.948 36.7408 119.677Z"
		fill="#4D878B" />
	<path
		d="M35.2519 140.922C35.0837 140.931 34.9416 140.801 34.9329 140.633C34.6762 135.052 34.9304 129.443 35.7179 123.906C35.7466 123.74 35.9035 123.625 36.0693 123.65C36.235 123.675 36.3471 123.828 36.3185 123.993C35.536 129.492 35.2843 135.06 35.5385 140.604C35.5484 140.772 35.4201 140.915 35.2519 140.922Z"
		fill="#3B7172" />
	<path
		d="M54.4489 140.231C49.2979 139.769 44.5731 140.977 41.4033 143.942C39.8595 145.407 38.5549 147.306 37.9506 149.481C37.6329 150.568 37.3999 151.736 37.3525 152.945C37.3326 154.15 37.4422 155.406 37.6902 156.687C42.886 156.392 47.1872 154.004 50.0568 151.016C51.4759 149.511 52.6933 147.809 53.3736 146.013C53.7524 145.109 54.0639 144.174 54.2259 143.212C54.3704 142.251 54.4663 141.258 54.4489 140.231Z"
		fill="#4D878B" />
	<path
		d="M39.7249 154.151C39.5941 154.05 39.5742 153.864 39.6801 153.738C43.1801 149.525 47.0502 145.757 51.0461 142.495C51.1657 142.396 51.3576 142.396 51.476 142.493C51.5943 142.591 51.5931 142.748 51.4734 142.847C47.48 146.114 43.6262 149.89 40.1535 154.104C40.0464 154.23 39.8558 154.252 39.7249 154.151Z"
		fill="#3B7172" />
	<path
		d="M57.4954 157.595C52.3494 158.419 48.1653 160.722 45.7419 164.398C44.5868 166.203 43.8816 168.326 43.7433 170.615C43.676 172.87 44.0909 175.327 45.2846 177.648C50.2698 176.071 53.801 172.721 55.8669 169.126C57.9975 165.448 58.5782 161.56 57.4954 157.595Z"
		fill="#4D878B" />
	<path
		d="M46.6079 174.704C46.4546 174.639 46.3873 174.466 46.4571 174.317C47.6807 171.828 48.9703 169.448 50.3334 167.175C51.7775 164.869 53.178 162.715 54.7654 160.626C54.8614 160.5 55.047 160.453 55.1804 160.519C55.3137 160.587 55.3436 160.742 55.2489 160.868C53.7088 162.943 52.266 165.117 50.8468 167.417C49.526 169.675 48.1816 172.083 47.0116 174.552C46.9406 174.701 46.7599 174.769 46.6079 174.704Z"
		fill="#3B7172" />
	<path
		d="M16.735 150.432C21.719 148.73 26.5597 149.785 30.4173 152.204C34.2588 154.673 37.2442 158.473 38.8328 163.452C36.5078 164.639 34.1341 165.294 31.7991 165.358C30.6329 165.39 29.4741 165.276 28.3415 165.012C27.2338 164.741 26.1548 164.321 25.1206 163.753C23.046 162.62 21.1396 160.894 19.7129 158.621C18.2003 156.37 17.2384 153.566 16.735 150.432Z"
		fill="#4D878B" />
	<path
		d="M35.8188 162.133C35.8886 161.975 35.8213 161.79 35.668 161.718C33.1536 160.513 30.5332 159.204 28.0824 157.726C26.8364 156.993 25.5854 156.228 24.3307 155.431C23.0797 154.635 21.896 153.793 20.6712 152.928C20.5241 152.823 20.3385 152.873 20.2563 153.04C20.174 153.207 20.2251 153.428 20.3721 153.532C25.2315 156.996 30.3289 159.904 35.4176 162.29C35.5708 162.362 35.749 162.292 35.8188 162.133Z"
		fill="#3B7172" />
	<path
		d="M23.4421 176.709C25.6488 175.265 27.9975 174.518 30.3151 174.3C32.6177 174.09 34.929 174.391 37.1232 175.091C39.295 175.805 41.3048 176.934 43.1763 178.393C44.9681 179.897 46.6888 181.684 48.0282 183.939C46.0807 185.663 43.9351 186.897 41.6923 187.536C39.4657 188.169 37.1432 188.204 34.8343 187.616C30.2229 186.474 25.8419 182.618 23.4421 176.709Z"
		fill="#4D878B" />
	<path
		d="M44.8135 183.39C44.8397 183.221 44.7263 183.058 44.5593 183.027C43.1812 182.76 41.7571 182.481 40.374 182.144C39.0009 181.8 37.6141 181.428 36.2136 181.027C33.374 180.24 30.6589 179.258 27.8405 178.182C27.671 178.118 27.5028 178.211 27.4654 178.392C27.4281 178.574 27.5352 178.774 27.7047 178.839C30.5032 179.92 33.2656 180.877 36.1002 181.662C37.5032 182.06 38.8813 182.436 40.2669 182.77C41.6823 183.09 43.0828 183.379 44.4671 183.641C44.6316 183.672 44.7873 183.56 44.8135 183.39Z"
		fill="#3B7172" />
	<path
		d="M36.2797 100.366L37.2179 100.024C37.6328 101.289 38.0988 102.554 38.5574 103.792C40.6494 99.1616 43.038 94.6663 45.6945 90.3357C46.0944 89.658 46.3723 88.9043 46.4558 88.1143L46.462 88.0644L47.4314 88.2241C47.3379 89.1589 47.0052 90.0487 46.5318 90.8499C45.4814 92.5696 44.4634 94.3081 43.5027 96.0803C45.7767 95.4188 48.0581 94.8397 50.3308 94.3381L50.585 95.2591C48.0132 95.8381 45.434 96.5171 42.8424 97.2921C40.1959 102.273 37.8982 107.437 35.9632 112.735L35.0399 112.398C35.957 109.927 36.9201 107.472 37.9867 105.061C37.3874 103.52 36.8292 101.958 36.2797 100.366Z"
		fill="#3B7172" />
	<path
		d="M52.1936 69.1434C54.2545 72.8949 54.5884 76.8124 53.6278 80.2606C52.6447 83.7101 50.3234 86.7003 46.6527 88.7982C43.9949 85.4997 43.2249 81.5086 44.2454 77.8183C45.2571 74.1404 48.0868 70.8295 52.1936 69.1434Z"
		fill="#4D878B" />
	<path
		d="M47.1772 86.1999C47.3106 86.2273 47.4414 86.1424 47.4713 86.0089C48.4332 81.576 49.668 77.1206 51.1881 72.6753C51.233 72.5405 51.1644 72.3995 51.0336 72.3595C50.904 72.3196 50.7607 72.397 50.7159 72.5318C49.192 76.9921 47.9535 81.4612 46.9891 85.9078C46.9604 86.0414 47.0452 86.1712 47.1772 86.1999Z"
		fill="#3B7172" />
	<path
		d="M63.5148 91.8071C61.8402 95.0968 59.1139 97.1535 55.8245 98.0034C52.5438 98.8321 48.6575 98.4415 44.9993 96.3236C46.4857 92.4311 49.5222 89.8877 52.9425 89.1077C56.3728 88.3077 60.1494 89.25 63.5148 91.8071Z"
		fill="#4D878B" />
	<path
		d="M47.4713 95.5174C47.5149 95.6435 47.6545 95.7133 47.7815 95.6734C51.9918 94.3593 56.1921 93.3247 60.3525 92.5646C60.4783 92.5422 60.5506 92.4249 60.5145 92.3013C60.4771 92.1778 60.3462 92.0954 60.2191 92.1179C56.05 92.8741 51.841 93.905 47.6208 95.2166C47.495 95.2566 47.4277 95.3914 47.4713 95.5174Z"
		fill="#3B7172" />
	<path
		d="M31.0639 84.233C28.6006 88.3427 28.2131 92.7469 29.55 96.255C30.8671 99.7793 33.8562 102.391 37.9207 103.538C39.7137 99.687 39.9168 95.7708 38.7493 92.2788C37.5942 88.8206 35.0162 85.7643 31.0639 84.233Z"
		fill="#4D878B" />
	<path
		d="M36.8503 101.103C36.7257 101.161 36.5812 101.105 36.5263 100.977C34.7533 96.7866 33.1796 92.4149 31.824 87.8834C31.7841 87.7474 31.8601 87.5926 31.9947 87.5377C32.1292 87.4828 32.2688 87.5502 32.3099 87.6862C33.6543 92.2152 35.2131 96.5807 36.9799 100.771C37.0297 100.898 36.9737 101.046 36.8503 101.103Z"
		fill="#3B7172" />
	<path
		d="M75.4503 46.3275C75.6509 46.3375 75.8066 46.5072 75.7979 46.7094L75.302 57.401L87.1701 48.479C87.3321 48.358 87.5601 48.3904 87.681 48.5514C87.8018 48.7124 87.7694 48.9421 87.6075 49.0631L78.9652 55.5602L86.8948 57.5994C87.0891 57.6494 87.2075 57.849 87.1577 58.0437C87.1078 58.2397 86.9085 58.357 86.7128 58.3071L78.2911 56.1418C78.2699 56.1355 78.2587 56.1156 78.2388 56.1068L59.1364 70.4688C58.9744 70.5899 58.7464 70.5574 58.6255 70.3964C58.5046 70.2354 58.537 70.0058 58.699 69.8847L74.5469 57.9701L75.0714 46.6757C75.0789 46.4735 75.2496 46.3175 75.4503 46.3275Z"
		fill="#3B7172" />
	<path
		d="M95.1208 42.9329C88.983 41.5739 83.7025 45.5662 83.325 51.8511C89.464 53.2102 94.7446 49.2179 95.1208 42.9329Z"
		fill="#4D878B" />
	<path
		d="M84.8899 50.668C84.8289 50.5869 84.845 50.4733 84.926 50.4122L92.9353 44.3557C93.0163 44.2945 93.1297 44.3107 93.1907 44.3918C93.2518 44.473 93.2356 44.5865 93.1546 44.6477L85.1453 50.7042C85.0656 50.7654 84.951 50.7492 84.8899 50.668Z"
		fill="#3B7172" />
	<path
		d="M95.7911 60.0817C92.9291 54.4757 86.4922 52.9406 81.4148 56.6522C84.2769 62.257 90.7124 63.7933 95.7911 60.0817Z"
		fill="#4D878B" />
	<path
		d="M83.3212 57.1065C83.3449 57.0079 83.4433 56.948 83.5405 56.9717L93.3029 59.3005C93.4014 59.3242 93.4612 59.4228 93.4375 59.5201C93.4138 59.6187 93.3154 59.6786 93.2182 59.6561L83.4558 57.3274C83.3573 57.3036 83.2975 57.2051 83.3212 57.1065Z"
		fill="#3B7172" />
	<path
		d="M75.8502 38.6323C80.4243 42.9504 80.0991 49.5698 75.1226 53.4174C70.5485 49.098 70.8737 42.4787 75.8502 38.6323Z"
		fill="#4D878B" />
	<path
		d="M75.2198 51.4555C75.3207 51.4605 75.4067 51.3831 75.4117 51.2821L75.9051 41.2419C75.9101 41.1408 75.8328 41.0559 75.7319 41.0509C75.631 41.046 75.545 41.1233 75.54 41.2244L75.0466 51.2646C75.0416 51.3657 75.1189 51.4505 75.2198 51.4555Z"
		fill="#3B7172" />
	<path
		d="M209.288 105.558C209.631 105.486 209.84 105.151 209.757 104.806C205.305 84.4214 191.875 66.4116 174.051 55.7761C173.748 55.5926 173.361 55.69 173.185 55.9932C173.01 56.2965 173.107 56.6871 173.403 56.8668C190.93 67.3188 204.152 85.0629 208.518 105.076C208.6 105.413 208.945 105.627 209.288 105.558Z"
		fill="#3B7172" />
	<path
		d="M158.435 49.4612C162.809 59.4976 170.384 63.3589 181.071 61.2473C180.943 58.4942 180.041 56.0482 178.699 53.8504C177.257 51.805 175.407 49.9392 173.129 48.8497C168.691 46.4211 162.987 46.6133 158.435 49.4612Z"
		fill="#4D878B" />
	<path
		d="M178.311 59.258C178.212 59.4015 178.015 59.4377 177.871 59.3379C173.108 56.0606 167.973 53.325 162.582 51.2434C162.417 51.186 162.334 51.0075 162.396 50.8428C162.457 50.678 162.642 50.5932 162.807 50.6506C168.247 52.7509 173.426 55.5115 178.23 58.8162C178.375 58.9161 178.411 59.1132 178.311 59.258Z"
		fill="#3B7172" />
	<path
		d="M190.08 43.0028C188.054 44.8673 186.726 47.0763 185.941 49.3876C185.146 51.7188 184.949 54.0776 185.087 56.5212C185.229 58.9635 185.916 61.2299 186.86 63.5486C187.346 64.6931 187.975 65.7651 188.677 66.8409C189.355 67.9416 190.156 68.9924 191.094 69.9908C195.706 67.0318 198.409 62.7649 198.464 57.688C198.512 55.1521 197.76 52.59 196.423 49.9804C195.722 48.7124 194.815 47.4994 193.772 46.3038C193.243 45.7135 192.694 45.1144 192.076 44.5653C191.447 44.0274 190.78 43.5058 190.08 43.0028Z"
		fill="#4D878B" />
	<path
		d="M191.448 66.5888C191.271 66.5663 191.14 66.4053 191.155 66.2268C191.649 60.3163 191.437 54.2136 190.573 47.8862C190.548 47.6941 190.685 47.548 190.882 47.5618C191.079 47.5755 191.259 47.7415 191.283 47.9324C192.132 54.2635 192.324 60.38 191.798 66.308C191.782 66.4864 191.625 66.6112 191.448 66.5888Z"
		fill="#3B7172" />
	<path
		d="M211.244 63.3228C206.298 65.6902 203.505 70.1231 202.476 74.7307C201.905 77.0932 201.78 79.5343 202.091 81.9691C202.318 84.4601 203.092 86.885 204.178 89.406C209.436 87.9845 213.359 84.6935 214.901 79.8488C216.369 75.1263 215.451 68.799 211.244 63.3228Z"
		fill="#4D878B" />
	<path
		d="M205.567 86.246C205.407 86.1699 205.334 85.9752 205.403 85.808C206.466 83.0886 207.435 80.2269 208.274 77.2592C209.021 74.3513 209.77 71.2401 210.244 68.1325C210.272 67.9453 210.448 67.8455 210.636 67.9129C210.824 67.979 210.954 68.1862 210.925 68.3734C210.395 71.5171 209.688 74.5934 208.911 77.515C208.017 80.5127 207.113 83.3294 205.982 86.0813C205.914 86.2498 205.727 86.3221 205.567 86.246Z"
		fill="#3B7172" />
	<path
		d="M171.159 79.0763C172.628 76.8199 174.336 74.8717 176.239 73.4228C178.132 71.9814 180.228 71.0291 182.454 70.641C186.885 69.8323 191.749 71.6057 195.146 75.8901C193.289 77.8981 191.161 79.3421 188.988 80.3455C187.902 80.8472 186.804 81.2365 185.716 81.5248C184.604 81.8331 183.497 82.0415 182.419 82.1538C181.341 82.2661 180.292 82.2824 179.291 82.1975C178.293 82.1076 177.255 81.9978 176.319 81.7395C174.467 81.1929 172.659 80.4278 171.159 79.0763Z"
		fill="#4D878B" />
	<path
		d="M191.787 75.834C191.789 75.6642 191.65 75.5294 191.476 75.5332C188.581 75.6068 185.862 75.7354 183.072 76.1435C181.698 76.3294 180.351 76.5428 179.035 76.7812C177.716 77.0245 176.364 77.3603 175.078 77.6847C174.922 77.7247 174.799 77.8832 174.801 78.0367C174.804 78.1902 174.931 78.2813 175.088 78.2413C180.28 76.9072 185.732 76.2346 191.466 76.146C191.641 76.1422 191.784 76.0037 191.787 75.834Z"
		fill="#3B7172" />
	<path
		d="M182.454 92.1653C184.536 90.4393 186.728 89.0964 188.987 88.2703C190.115 87.8572 191.263 87.5676 192.408 87.4204C193.53 87.2868 194.65 87.2931 195.759 87.4441C196.867 87.5951 197.962 87.8896 199.027 88.3252C200.092 88.7607 201.028 89.3897 201.96 90.1285C203.862 91.5887 205.272 93.7215 206.309 96.2363C203.916 97.5841 201.463 98.2992 199.083 98.5987C196.682 98.9007 194.352 98.7884 192.263 98.3591C188.079 97.4668 184.627 95.5174 182.454 92.1653Z"
		fill="#4D878B" />
	<path
		d="M203.078 95.1792C203.134 95.0182 203.045 94.846 202.881 94.7961C201.505 94.388 200.187 94.0011 198.813 93.6841C197.423 93.3721 196.054 93.0988 194.703 92.8617C192.053 92.3637 189.258 92.1179 186.638 91.9693C186.479 91.9606 186.314 92.0742 186.269 92.2227C186.223 92.3712 186.314 92.496 186.474 92.506C187.793 92.5784 189.136 92.6844 190.501 92.8267C191.868 92.9677 193.157 93.1886 194.522 93.422C195.87 93.6629 197.254 93.9324 198.626 94.2532C199.958 94.5901 201.309 94.9645 202.677 95.3801C202.842 95.4288 203.022 95.3402 203.078 95.1792Z"
		fill="#3B7172" />
	<path
		d="M209.027 153.611L209.981 153.085C210.765 154.362 211.462 155.652 212.179 156.989C213.887 151.471 215.046 145.788 215.663 140.046C215.781 139.159 215.62 138.243 215.294 137.417L215.273 137.364L216.333 137.001C216.716 137.989 216.917 139.096 216.774 140.166C216.519 142.488 216.195 144.806 215.756 147.101C216.89 146.325 217.994 145.511 219.084 144.665C220.187 143.821 221.288 142.945 222.346 142.034L223.03 142.981C220.561 145.047 218.025 146.944 215.458 148.675C214.789 151.877 213.973 155.047 212.99 158.168C211.981 161.281 210.82 164.342 209.508 167.34L208.487 166.884C209.673 164.135 210.781 161.348 211.703 158.496C210.859 156.823 209.945 155.186 209.027 153.611Z"
		fill="#3B7172" />
	<path
		d="M206.952 118.261C211.633 118.947 215.289 121.623 216.982 125.408C218.708 129.161 218.471 133.943 215.853 137.996C211.465 136.036 208.439 132.972 206.916 129.592C205.386 126.181 205.305 122.399 206.952 118.261Z"
		fill="#4D878B" />
	<path
		d="M214.946 135.151C215.092 135.103 215.169 134.945 215.12 134.801C213.469 129.998 211.435 125.476 209.085 121.302C209.015 121.176 208.849 121.13 208.711 121.199C208.574 121.267 208.518 121.423 208.587 121.548C210.926 125.699 212.949 130.198 214.591 134.978C214.642 135.121 214.801 135.2 214.946 135.151Z"
		fill="#3B7172" />
	<path
		d="M233.993 129.342C234.705 135.075 232.906 140.221 229.744 143.373C226.583 146.568 222.182 147.784 217.467 146.804C217.7 141.868 219.41 137.73 222.268 134.569C225.13 131.446 229.177 129.282 233.993 129.342Z"
		fill="#4D878B" />
	<path
		d="M219.816 144.832C219.913 144.957 220.09 144.973 220.21 144.868C224.192 141.393 227.991 137.453 231.521 133.065C231.625 132.932 231.618 132.725 231.505 132.602C231.391 132.479 231.214 132.487 231.11 132.619C227.601 137.003 223.821 140.942 219.857 144.417C219.736 144.523 219.719 144.707 219.816 144.832Z"
		fill="#3B7172" />
	<path
		d="M197.7 140.115C197.122 143.919 198.256 147.454 200.611 150.497C202.998 153.506 206.665 156.037 211.424 156.794C212.884 152.227 211.86 147.789 209.252 144.801C206.607 141.763 202.499 140.176 197.7 140.115Z"
		fill="#4D878B" />
	<path
		d="M209.813 154.301C209.683 154.381 209.51 154.343 209.426 154.217C206.588 150.039 203.469 146.234 200.137 142.827C200.035 142.723 200.045 142.577 200.16 142.497C200.274 142.417 200.45 142.436 200.552 142.538C203.899 145.943 207.044 149.751 209.892 153.928C209.981 154.054 209.943 154.221 209.813 154.301Z"
		fill="#3B7172" />
	<path
		d="M178.244 195.38C178.471 195.385 178.675 195.572 178.699 195.803C178.898 197.831 179.064 199.938 179.106 202.015C179.135 203.063 179.15 204.123 179.15 205.195C179.134 206.247 179.104 207.31 179.058 208.384C181.456 206.612 183.704 204.646 185.921 202.653C188.076 200.595 190.211 198.506 192.159 196.246C192.321 196.064 192.599 196.048 192.782 196.207C192.965 196.367 192.98 196.645 192.817 196.829C189.914 200.116 186.772 203.191 183.425 206.023C186.654 206.633 189.996 207.101 193.385 207.363C193.636 207.384 193.805 207.604 193.76 207.86C193.716 208.114 193.474 208.304 193.222 208.283C191.427 208.143 189.629 207.927 187.859 207.67C186.105 207.429 184.361 207.124 182.636 206.765C182.61 206.76 182.595 206.737 182.571 206.727C175.095 212.892 166.635 217.866 157.584 221.336C157.356 221.427 157.102 221.317 157.017 221.089C156.932 220.862 157.046 220.604 157.271 220.513C164.709 217.673 171.729 213.775 178.152 209.075C178.386 204.519 178.326 200.121 177.875 195.787C177.853 195.557 178.017 195.375 178.244 195.38Z"
		fill="#3B7172" />
	<path
		d="M199.645 187.252C192.121 188.211 187.821 193.49 188.266 201.042C190.164 201.206 191.935 200.877 193.557 200.223C195.125 199.521 196.566 198.512 197.622 197.178C199.818 194.576 200.642 190.88 199.645 187.252Z"
		fill="#4D878B" />
	<path
		d="M189.924 199.344C189.837 199.26 189.834 199.12 189.918 199.032C192.705 196.102 195.298 192.987 197.666 189.71C197.736 189.61 197.872 189.587 197.971 189.658C198.069 189.729 198.093 189.867 198.023 189.967C195.642 193.261 193.036 196.391 190.235 199.335C190.151 199.425 190.011 199.427 189.924 199.344Z"
		fill="#3B7172" />
	<path
		d="M205.109 207.841C202.823 204.794 199.519 203.428 196.205 203.378C192.838 203.31 189.488 204.58 186.476 207.11C188.418 210.372 191.369 212.298 194.817 212.537C198.205 212.746 202.077 211.232 205.109 207.841Z"
		fill="#4D878B" />
	<path
		d="M188.867 207.412C188.89 207.288 189.008 207.2 189.131 207.215C191.195 207.452 193.248 207.578 195.379 207.69C197.478 207.77 199.609 207.786 201.777 207.746C201.907 207.743 201.998 207.847 201.981 207.982C201.967 208.118 201.846 208.227 201.714 208.228C197.379 208.305 193.169 208.131 189.051 207.663C188.928 207.648 188.846 207.535 188.867 207.412Z"
		fill="#3B7172" />
	<path
		d="M176.888 186.782C179.93 188.984 181.891 191.893 182.286 194.988C182.681 198.044 181.532 201.333 178.715 203.635C175.914 201.113 174.513 197.861 174.256 194.867C174.127 193.361 174.253 191.863 174.71 190.526C175.117 189.132 175.874 187.916 176.888 186.782Z"
		fill="#4D878B" />
	<path
		d="M178.669 201.32C178.786 201.324 178.878 201.232 178.875 201.114C178.741 197.197 178.313 193.343 177.663 189.652C177.645 189.54 177.539 189.451 177.428 189.448C177.317 189.447 177.243 189.534 177.262 189.645C177.908 193.339 178.329 197.189 178.45 201.099C178.455 201.217 178.552 201.315 178.669 201.32Z"
		fill="#3B7172" />
	<path
		d="M77.5273 93.8226C79.9022 88.5735 83.7312 83.8399 84.5809 78.1403C85.5055 71.9452 82.7418 65.8886 80.9413 59.8908C77.0613 46.9615 77.7466 32.3848 84.3716 20.6262C90.9953 8.86752 103.94 0.489702 117.414 0.875334C130.889 1.26097 143.929 11.3298 146.297 24.621C147.216 29.7865 146.694 35.4175 149.358 39.9365C152.382 45.0683 158.91 47.5967 161.264 53.0692C164.436 60.4461 158.474 68.5531 158.453 76.5852C158.429 85.3936 165.388 92.4611 168.771 100.592C173.324 111.537 170.931 124.819 163.546 134.086C156.161 143.351 144.274 148.571 132.437 148.701C120.6 148.831 108.946 144.123 99.8382 136.55C92.3946 130.363 87.4318 122.7 82.8291 114.314C81.2117 111.368 78.3808 109.592 76.8482 106.744C74.7774 102.903 75.8265 97.5816 77.5273 93.8226Z"
		fill="black" />
	<path
		d="M128.715 85.4748L159.514 90.3707L165.834 102.859L157.418 156.652C154.546 175.008 157.914 193.797 166.981 210.006L186.554 244.998C144.82 266.807 97.573 259.991 78.3285 247.269L94.9713 202.088C98.9959 191.16 98.4028 179.064 93.3278 168.584L86.5284 154.545L85.3485 153.622C79.0649 148.706 76.695 140.273 79.4948 132.796L87.499 111.417L92.9926 95.3577L112.726 85.7805L128.715 85.4748Z"
		fill="#49467A" />
	<path
		d="M172.359 236.514C166.821 239.17 160.366 241.868 153.283 243.978C146.209 246.104 138.524 247.646 130.754 248.366C122.981 249.064 115.145 248.935 107.804 248.125C100.457 247.33 93.6231 245.845 87.6959 244.234C93.06 247.207 99.7821 249.833 107.283 251.395C114.774 252.978 123.013 253.497 131.154 252.763C139.293 252.012 147.303 250.011 154.386 247.099C161.482 244.207 167.619 240.408 172.359 236.514Z"
		fill="#32305F" />
	<path
		d="M163.691 224.387C159.671 226.627 155.03 229.081 149.945 231.343C144.865 233.614 139.349 235.693 133.709 237.371C128.066 239.039 122.31 240.304 116.815 241.171C111.32 242.048 106.093 242.522 101.504 242.836C106.031 243.624 111.382 243.982 117.082 243.639C122.778 243.304 128.811 242.27 134.648 240.544C140.48 238.808 146.103 236.385 151.063 233.557C156.029 230.737 160.322 227.517 163.691 224.387Z"
		fill="#32305F" />
	<path
		d="M147.698 186.064C140.927 188.114 132.281 191.185 123.644 194.277C115.012 197.383 106.387 200.51 99.8568 203.232C106.844 202.144 115.808 199.8 124.501 196.672C133.2 193.559 141.61 189.668 147.698 186.064Z"
		fill="#32305F" />
	<path
		d="M134.861 110.862C126.45 114.825 113.772 122.785 106.544 128.638C114.955 124.674 127.633 116.716 134.861 110.862Z"
		fill="#32305F" />
	<path
		d="M92.9927 95.3589C84.2806 97.0425 77.1087 103.219 74.1419 111.594L59.6522 152.495L25.6302 193.202L23.5718 194.762C19.9933 197.474 18.5467 202.175 19.9833 206.433L20.174 207C21.6056 211.244 25.5803 214.102 30.0535 214.102L34.5902 202.743L65.6268 171.532C71.6338 165.492 75.9673 157.99 78.2039 149.763L92.9927 95.3589Z"
		fill="#E28572" />
	<path
		d="M99.9628 91.9756L98.1623 98.9307C97.0322 103.292 98.7429 107.898 102.444 110.46L111.704 116.871L130.749 107.436C134.66 105.498 137.704 102.163 139.28 98.0871C140.804 94.1471 143.701 90.8936 147.437 88.9292L148.136 88.5623L128.715 85.4748L112.726 85.7818L99.9628 91.9756Z"
		fill="#E28572" />
	<path
		d="M123.556 72.0051C124.601 69.101 125.156 66.0496 125.441 62.9696L106.375 73.3654L107.978 85.2289C110.904 85.0841 113.807 84.0246 116.196 82.2974C119.663 79.7901 122.105 76.0361 123.556 72.0051Z"
		fill="black" />
	<path
		d="M130.416 97.5604L125.539 62.9159L125.441 62.9696C125.156 66.0496 124.601 69.101 123.556 72.0051C122.105 76.0361 119.662 79.7889 116.194 82.2986C113.806 84.0258 110.903 85.0854 107.977 85.2302L109.644 97.5604H130.416Z"
		fill="#E28572" />
	<path
		d="M86.0399 24.9954L90.4582 19.5317C93.501 15.769 97.6888 13.1057 102.382 11.9488C107.244 10.7508 112.367 11.2362 116.918 13.3266L119.8 14.6508C125.999 17.4987 130.545 23.0461 132.123 29.6929L132.649 31.9093C133.635 36.0602 133.405 40.4095 131.987 44.433L128.715 53.7169H125.541L122.593 32.8166L106.716 23.73L86.0399 24.9954Z"
		fill="#D13C34" />
	<path
		d="M91.0364 60.0904C91.0364 64.5832 87.3993 68.2262 82.9137 68.2262C78.4281 68.2262 74.791 64.5832 74.791 60.0904C74.791 55.5976 78.4281 51.9547 82.9137 51.9547C87.3993 51.9547 91.0364 55.5976 91.0364 60.0904Z"
		fill="#DD745C" />
	<path
		d="M82.9138 64.6831C85.4461 64.6831 87.499 62.6269 87.499 60.0904C87.499 57.554 85.4461 55.4978 82.9138 55.4978C80.3814 55.4978 78.3285 57.554 78.3285 60.0904C78.3285 62.6269 80.3814 64.6831 82.9138 64.6831Z"
		fill="#D16250" />
	<path
		d="M83.8918 68.6093C83.8918 69.856 82.8826 70.8669 81.6378 70.8669C80.3931 70.8669 79.3838 69.856 79.3838 68.6093C79.3838 67.3625 80.3931 66.3517 81.6378 66.3517C82.8826 66.3517 83.8918 67.3625 83.8918 68.6093Z"
		fill="white" />
	<path
		d="M106.456 81.1841H102.664C91.3093 81.1841 82.1051 71.9652 82.1051 60.5921V39.753C82.1051 28.38 91.3093 19.161 102.664 19.161H106.456C117.81 19.161 127.015 28.38 127.015 39.753V60.5909C127.015 71.9639 117.81 81.1841 106.456 81.1841Z"
		fill="#E28572" />
	<path
		d="M78.9303 48.5065C85.0793 48.3692 91.1797 46.4648 96.3182 43.0802C101.457 39.6944 105.618 34.8384 108.18 29.2374C109.74 37.8973 114.738 46.0529 122.383 50.3897L121.987 54.0938C121.611 57.6119 123.689 60.9304 127.016 62.1209L128.542 41.6288C129.078 34.4328 126.075 27.4265 120.496 22.8601L119.674 22.1874C115.731 18.9601 110.796 17.1967 105.703 17.1967H102.87C96.3892 17.1967 90.2365 20.0484 86.0412 24.9954C83.467 28.0318 81.7587 31.7084 81.0971 35.6371L78.9303 48.5065Z"
		fill="black" />
	<path
		d="M140.368 60.0904C140.368 64.5832 136.731 68.2262 132.245 68.2262C127.76 68.2262 124.123 64.5832 124.123 60.0904C124.123 55.5976 127.76 51.9547 132.245 51.9547C136.731 51.9547 140.368 55.5976 140.368 60.0904Z"
		fill="#E28572" />
	<path
		d="M132.245 64.6831C134.778 64.6831 136.831 62.6269 136.831 60.0904C136.831 57.554 134.778 55.4978 132.245 55.4978C129.713 55.4978 127.66 57.554 127.66 60.0904C127.66 62.6269 129.713 64.6831 132.245 64.6831Z"
		fill="#DD745C" />
	<path
		d="M133.223 68.6093C133.223 69.856 132.214 70.8669 130.969 70.8669C129.725 70.8669 128.715 69.856 128.715 68.6093C128.715 67.3625 129.725 66.3517 130.969 66.3517C132.214 66.3517 133.223 67.3625 133.223 68.6093Z"
		fill="white" />
	<path
		d="M107.187 42.6696C104.96 42.1816 102.749 42.6771 100.999 43.8652L112.309 46.345C111.217 44.5341 109.415 43.1576 107.187 42.6696Z"
		fill="#090A10" />
	<path
		d="M106.048 53.3175C106.87 53.3175 107.537 52.4023 107.537 51.2733C107.537 50.1443 106.87 49.2291 106.048 49.2291C105.226 49.2291 104.559 50.1443 104.559 51.2733C104.559 52.4023 105.226 53.3175 106.048 53.3175Z"
		fill="#090A10" />
	<path
		d="M89.5475 53.3175C90.3698 53.3175 91.0364 52.4023 91.0364 51.2733C91.0364 50.1443 90.3698 49.2291 89.5475 49.2291C88.7251 49.2291 88.0585 50.1443 88.0585 51.2733C88.0585 52.4023 88.7251 53.3175 89.5475 53.3175Z"
		fill="#090A10" />
	<path
		d="M99.7945 63.4139C97.6763 63.2167 95.5581 63.0207 93.4411 62.8236C93.4237 64.3374 94.4242 65.5454 95.902 65.8649C97.3773 66.1844 99.1877 64.8004 99.7945 63.4139Z"
		fill="#DD745C" />
	<path
		d="M107.598 68.0689C102.73 68.2349 97.8607 68.4021 92.9926 68.5681C93.3888 72.0113 96.0129 74.4674 99.4606 74.7644C102.907 75.0627 106.62 71.3936 107.598 68.0689Z"
		fill="white" />
	<path
		d="M0.0797119 130.338L34.1416 244.496C34.7235 247.563 55.0794 246.263 79.6069 241.592C104.134 236.922 123.546 230.65 122.964 227.583L112.827 108.869L0.0797119 130.338Z"
		fill="#76A9BF" />
	<path
		d="M112.828 108.87C113.567 112.762 88.9257 120.723 57.7919 126.653C26.6569 132.581 0.818547 134.232 0.0796684 130.338C-0.65921 126.445 23.9817 118.483 55.1155 112.555C86.2493 106.627 112.089 104.977 112.828 108.87Z"
		fill="#5C8495" />
	<path
		d="M64.3172 150.726C66.2697 150.343 68.2159 149.919 70.1784 149.593C71.6175 149.355 73.0753 149.292 74.4908 149.799C75.5237 150.169 76.3673 150.825 77.0862 151.629C78.4219 153.121 79.7252 154.644 81.0398 156.155C81.4223 156.595 81.4584 156.601 81.8982 156.219C82.7655 155.466 83.6265 154.708 84.4999 153.963C84.6033 153.875 84.7678 153.86 84.9048 153.811C84.9273 153.946 84.9871 154.086 84.9672 154.213C84.2245 158.679 83.4695 163.142 82.7331 167.608C82.6733 167.969 82.5138 168.071 82.1836 168.077C79.957 168.122 77.7304 168.18 75.5038 168.231C73.2373 168.282 70.9696 168.333 68.7031 168.374C68.5636 168.377 68.4227 168.295 68.2819 168.252C68.3617 168.126 68.4178 167.973 68.5249 167.878C69.3946 167.108 70.2706 166.344 71.1528 165.589C71.3995 165.378 71.4705 165.183 71.235 164.917C68.6508 161.998 66.104 159.044 63.4724 156.168C62.1255 154.695 60.5381 153.48 58.7289 152.59C58.5258 152.49 58.3102 152.412 58.1121 152.304C58.0187 152.253 57.9526 152.152 57.8754 152.074C57.9726 152.001 58.061 151.893 58.1707 151.861C58.3999 151.792 58.6404 151.762 58.8772 151.716C60.6864 151.362 62.4955 151.007 64.3047 150.653C64.3072 150.677 64.3122 150.701 64.3172 150.726Z"
		fill="#F7E1D6" />
	<path
		d="M85.1865 186.953C87.2087 186.51 89.2447 186.122 91.2482 185.609C93.364 185.068 95.3812 184.258 97.1443 182.915C97.2241 182.854 97.3524 182.856 97.4583 182.829C97.4658 182.962 97.5156 183.11 97.4758 183.227C96.7793 185.291 96.0802 187.354 95.3625 189.411C94.742 191.189 94.119 192.968 93.4562 194.731C93.2082 195.391 92.8681 196.02 92.5292 196.64C91.6532 198.249 90.2888 199.25 88.5208 199.642C86.4736 200.096 84.4102 200.473 82.353 200.879C81.8135 200.985 81.7488 201.061 81.8522 201.602C82.0677 202.733 82.2957 203.86 82.5063 204.992C82.5312 205.122 82.4802 205.265 82.4652 205.404C82.3269 205.356 82.1587 205.344 82.0528 205.257C78.5577 202.377 75.0689 199.49 71.5739 196.61C71.3359 196.414 71.2873 196.251 71.4418 195.97C73.6211 191.997 75.7904 188.018 77.9684 184.044C78.0307 183.931 78.164 183.857 78.2637 183.765C78.3335 183.881 78.4431 183.988 78.4693 184.113C78.6986 185.241 78.9116 186.372 79.1321 187.5C79.2393 188.048 79.2692 188.068 79.8274 187.959C81.6105 187.612 83.3935 187.262 85.1765 186.912C85.1802 186.926 85.184 186.94 85.1865 186.953Z"
		fill="#F7E1D6" />
	<path
		d="M41.1765 188.889C40.9709 187.807 41.1055 186.746 41.4382 185.722C42.06 183.802 42.729 181.898 43.3832 179.988C43.5825 179.405 43.5763 179.376 43.0069 179.178C41.9353 178.806 40.86 178.443 39.791 178.063C39.6576 178.015 39.5517 177.89 39.4321 177.802C39.543 177.707 39.639 177.572 39.7673 177.523C42.4637 176.505 45.1625 175.497 47.8613 174.486C49.3354 173.933 50.8106 173.381 52.2834 172.826C52.8677 172.606 52.8727 172.603 53.1967 173.136C55.5043 176.936 57.8119 180.736 60.1132 184.539C60.188 184.663 60.198 184.827 60.2391 184.972C60.0784 184.967 59.9051 184.999 59.7594 184.95C58.6579 184.583 57.559 184.207 56.465 183.816C56.1672 183.71 55.9765 183.755 55.8731 184.067C54.5897 187.963 53.2602 191.843 52.0442 195.761C51.5046 197.499 51.3364 199.324 51.4635 201.157C51.4747 201.317 51.5183 201.476 51.5121 201.635C51.5071 201.79 51.4573 201.944 51.4274 202.098C51.3003 202.022 51.1433 201.973 51.0498 201.867C50.0854 200.775 49.126 199.68 48.1766 198.575C46.5069 196.629 44.8286 194.69 43.1876 192.718C42.4176 191.793 41.7671 190.777 41.3784 189.62C41.2999 189.382 41.2438 189.134 41.1765 188.889Z"
		fill="#F7E1D6" />
	<path
		d="M67.7636 196.974C68.1561 198.983 68.5399 200.993 68.9473 202.999C69.0233 203.37 68.9187 203.491 68.5623 203.559C65.2305 204.201 61.9037 204.87 58.5694 205.496C57.9613 205.611 57.3159 205.643 56.7004 205.585C55.1603 205.438 54.0588 204.392 53.6302 202.827C53.1019 200.892 53.2203 198.952 53.6078 197.028C53.8707 195.723 54.2831 194.448 54.6245 193.157C54.6968 192.884 54.8463 192.749 55.1404 192.692C58.7737 191.992 62.4058 191.281 66.0342 190.558C66.4055 190.484 66.5251 190.589 66.5924 190.944C66.9724 192.958 67.3711 194.964 67.7636 196.974Z"
		fill="#F7E1D6" />
	<path
		d="M64.2549 159.621C64.22 159.743 64.1951 159.847 64.1615 159.947C62.9541 163.475 61.7417 167.002 60.5418 170.532C60.4384 170.835 60.3275 170.927 59.9973 170.812C56.1011 169.46 52.2011 168.121 48.2986 166.788C48.0033 166.687 47.9335 166.566 48.037 166.265C49.1621 163.006 50.271 159.741 51.3961 156.481C51.7014 155.597 52.14 154.787 52.8851 154.191C53.9455 153.341 55.1441 153.33 56.3814 153.665C57.838 154.061 59.0915 154.85 60.2814 155.747C61.6732 156.798 62.9105 158.014 64.0418 159.339C64.1178 159.43 64.1839 159.529 64.2549 159.621Z"
		fill="#F7E1D6" />
	<path
		d="M88.6902 184.479C88.0921 184.828 87.524 184.416 86.9184 183.7C84.713 181.088 82.4515 178.524 80.1988 175.954C79.9421 175.66 79.9695 175.499 80.2548 175.252C83.3412 172.576 86.4188 169.891 89.4902 167.198C89.7506 166.969 89.9013 166.957 90.1356 167.227C92.3522 169.795 94.5801 172.351 96.8054 174.91C97.5493 175.765 98.1312 176.706 98.1586 177.875C98.1897 179.251 97.4334 180.244 96.4491 181.087C94.9726 182.35 93.2245 183.106 91.4016 183.701C90.6153 183.957 89.8116 184.159 88.6902 184.479Z"
		fill="#F7E1D6" />
	<path
		d="M124.123 165.685L147.751 96.4796C149.409 91.6199 154.592 88.9292 159.514 90.3707C164.825 91.9269 167.72 97.6502 165.834 102.859L143.008 165.897C140.06 174.04 134.58 181.02 127.377 185.813L78.3634 218.418L67.8035 225.364C64.8219 227.325 61.2147 228.092 57.6948 227.512C51.3015 226.46 46.6104 220.925 46.6104 214.436C46.6104 210.915 49.5496 208.109 53.0609 208.279L60.6727 208.649L69.2913 205.467L64.0518 198.802C62.366 196.657 62.9043 193.522 65.2081 192.064L76.5492 201.378L124.123 165.685Z"
		fill="#E28572" />
</svg>