<svg width="142" height="142" viewBox="0 0 142 142" fill="none" xmlns="http://www.w3.org/2000/svg">
<path d="M14.7916 71C14.7916 44.5032 14.7916 31.2547 23.0231 23.0232C31.2547 14.7917 44.5031 14.7917 71 14.7917C97.4966 14.7917 110.745 14.7917 118.977 23.0232C127.208 31.2547 127.208 44.5032 127.208 71C127.208 97.4966 127.208 110.745 118.977 118.977C110.745 127.208 97.4966 127.208 71 127.208C44.5031 127.208 31.2547 127.208 23.0231 118.977C14.7916 110.745 14.7916 97.4966 14.7916 71Z" stroke="#090909" stroke-width="3"/>
<path d="M70.8235 100.811L70.8235 59.0963M70.8235 59.0963C68.8942 59.0706 66.9909 60.3966 65.5864 62.0154L56.1819 72.5628M70.8235 59.0963C72.6847 59.1211 74.57 60.4402 76.0605 62.0154L85.5196 72.5628M94.5858 41.6442L47.2524 41.6442" stroke="#090909" stroke-width="3" stroke-linecap="round"/>
</svg>
